<svg xmlns="http://www.w3.org/2000/svg" xmlns:xlink="http://www.w3.org/1999/xlink" font-size="10px" font-family="sans-serif" fill="none" stroke="none" stroke-width="1.5" width="1080" height="685">
     <g transform="translate(100,5)">
          <g transform="translate(10,20)">
               <path d="M443.0769230769231,599.3544569368981L477.6923076923077,598.7089138737963L505.3846153846154,598.0633708106946L512.3076923076923,596.126741621389L526.1538461538461,591.6079401796761L533.0769230769231,590.3168540534725L540.0,589.0257679272688L546.923076923077,587.7346818010651L553.8461538461539,583.8614234224541L560.7692307692308,578.0515358545376L567.6923076923076,572.2416482866212L574.6153846153846,568.3683899080102L581.5384615384615,562.5585023400936L588.4615384615385,553.520899456668L595.3846153846154,543.1922104470385L602.3076923076923,532.8635214374092L609.2307692307693,525.1170046801872L616.1538461538462,516.7249448598634L623.0769230769231,505.10516972403036L630.0,492.19430846199367L636.9230769230769,477.9923610737533L643.8461538461538,463.79041368551293L650.7692307692307,446.36075098176343L657.6923076923076,428.2855452149121L664.6153846153845,409.56479638495887L671.5384615384614,390.84404755500566L678.4615384615386,368.8955834095433L685.3846153846155,350.82037764269194L692.3076923076924,326.935284307924L699.2307692307693,308.21453547797086L706.1538461538462,293.36704502662866L713.0769230769231,268.19086556565713L720.0,247.53348754639848L726.9230769230769,232.04045403195437L733.8461538461538,212.67416213889936L740.7692307692307,198.47221475065902L747.6923076923077,183.62472429931682L754.6153846153846,170.06831997417834L761.5384615384615,158.44854483834524L768.4615384615385,146.82876970251226L775.3846153846154,135.20899456667922L782.3076923076924,128.108020872559L789.2307692307692,123.58921943084619L796.1538461538461,118.42487492603146L803.076923076923,112.614987358115L809.9999999999999,106.15955672709663L816.923076923077,104.86847060089298L823.8461538461539,102.93184141158753L830.7692307692308,100.9952122222819L837.6923076923077,100.34966915918011L844.6153846153846,99.05858303297651" fill="none" stroke="rgb(0,128,0)" stroke-dasharray="" stroke-width="2"/>
          </g>
          <g transform="translate(10,20)">
               <circle fill="rgb(255,0,0)" fill-opacity="0.3" stroke="rgb(255,0,0)" stroke-width="2" cx="443.0769230769231" cy="599.3544569368981" r="1.0"/>
               <circle fill="rgb(255,0,0)" fill-opacity="0.3" stroke="rgb(255,0,0)" stroke-width="2" cx="477.6923076923077" cy="598.7089138737963" r="1.0"/>
               <circle fill="rgb(255,0,0)" fill-opacity="0.3" stroke="rgb(255,0,0)" stroke-width="2" cx="505.3846153846154" cy="598.0633708106946" r="1.0"/>
               <circle fill="rgb(255,0,0)" fill-opacity="0.3" stroke="rgb(255,0,0)" stroke-width="2" cx="512.3076923076923" cy="596.126741621389" r="1.0"/>
               <circle fill="rgb(255,0,0)" fill-opacity="0.3" stroke="rgb(255,0,0)" stroke-width="2" cx="526.1538461538461" cy="591.6079401796761" r="1.0"/>
               <circle fill="rgb(255,0,0)" fill-opacity="0.3" stroke="rgb(255,0,0)" stroke-width="2" cx="533.0769230769231" cy="590.3168540534725" r="1.0"/>
               <circle fill="rgb(255,0,0)" fill-opacity="0.3" stroke="rgb(255,0,0)" stroke-width="2" cx="540.0" cy="589.0257679272688" r="1.0"/>
               <circle fill="rgb(255,0,0)" fill-opacity="0.3" stroke="rgb(255,0,0)" stroke-width="2" cx="546.923076923077" cy="587.7346818010651" r="1.0"/>
               <circle fill="rgb(255,0,0)" fill-opacity="0.3" stroke="rgb(255,0,0)" stroke-width="2" cx="553.8461538461539" cy="583.8614234224541" r="1.0"/>
               <circle fill="rgb(255,0,0)" fill-opacity="0.3" stroke="rgb(255,0,0)" stroke-width="2" cx="560.7692307692308" cy="578.0515358545376" r="1.0"/>
               <circle fill="rgb(255,0,0)" fill-opacity="0.3" stroke="rgb(255,0,0)" stroke-width="2" cx="567.6923076923076" cy="572.2416482866212" r="1.0"/>
               <circle fill="rgb(255,0,0)" fill-opacity="0.3" stroke="rgb(255,0,0)" stroke-width="2" cx="574.6153846153846" cy="568.3683899080102" r="1.0"/>
               <circle fill="rgb(255,0,0)" fill-opacity="0.3" stroke="rgb(255,0,0)" stroke-width="2" cx="581.5384615384615" cy="562.5585023400936" r="1.0"/>
               <circle fill="rgb(255,0,0)" fill-opacity="0.3" stroke="rgb(255,0,0)" stroke-width="2" cx="588.4615384615385" cy="553.520899456668" r="1.0"/>
               <circle fill="rgb(255,0,0)" fill-opacity="0.3" stroke="rgb(255,0,0)" stroke-width="2" cx="595.3846153846154" cy="543.1922104470385" r="1.0"/>
               <circle fill="rgb(255,0,0)" fill-opacity="0.3" stroke="rgb(255,0,0)" stroke-width="2" cx="602.3076923076923" cy="532.8635214374092" r="1.0"/>
               <circle fill="rgb(255,0,0)" fill-opacity="0.3" stroke="rgb(255,0,0)" stroke-width="2" cx="609.2307692307693" cy="525.1170046801872" r="1.0"/>
               <circle fill="rgb(255,0,0)" fill-opacity="0.3" stroke="rgb(255,0,0)" stroke-width="2" cx="616.1538461538462" cy="516.7249448598634" r="1.0"/>
               <circle fill="rgb(255,0,0)" fill-opacity="0.3" stroke="rgb(255,0,0)" stroke-width="2" cx="623.0769230769231" cy="505.10516972403036" r="1.0"/>
               <circle fill="rgb(255,0,0)" fill-opacity="0.3" stroke="rgb(255,0,0)" stroke-width="2" cx="630.0" cy="492.19430846199367" r="1.0"/>
               <circle fill="rgb(255,0,0)" fill-opacity="0.3" stroke="rgb(255,0,0)" stroke-width="2" cx="636.9230769230769" cy="477.9923610737533" r="1.0"/>
               <circle fill="rgb(255,0,0)" fill-opacity="0.3" stroke="rgb(255,0,0)" stroke-width="2" cx="643.8461538461538" cy="463.79041368551293" r="1.0"/>
               <circle fill="rgb(255,0,0)" fill-opacity="0.3" stroke="rgb(255,0,0)" stroke-width="2" cx="650.7692307692307" cy="446.36075098176343" r="1.0"/>
               <circle fill="rgb(255,0,0)" fill-opacity="0.3" stroke="rgb(255,0,0)" stroke-width="2" cx="657.6923076923076" cy="428.2855452149121" r="1.0"/>
               <circle fill="rgb(255,0,0)" fill-opacity="0.3" stroke="rgb(255,0,0)" stroke-width="2" cx="664.6153846153845" cy="409.56479638495887" r="1.0"/>
               <circle fill="rgb(255,0,0)" fill-opacity="0.3" stroke="rgb(255,0,0)" stroke-width="2" cx="671.5384615384614" cy="390.84404755500566" r="1.0"/>
               <circle fill="rgb(255,0,0)" fill-opacity="0.3" stroke="rgb(255,0,0)" stroke-width="2" cx="678.4615384615386" cy="368.8955834095433" r="1.0"/>
               <circle fill="rgb(255,0,0)" fill-opacity="0.3" stroke="rgb(255,0,0)" stroke-width="2" cx="685.3846153846155" cy="350.82037764269194" r="1.0"/>
               <circle fill="rgb(255,0,0)" fill-opacity="0.3" stroke="rgb(255,0,0)" stroke-width="2" cx="692.3076923076924" cy="326.935284307924" r="1.0"/>
               <circle fill="rgb(255,0,0)" fill-opacity="0.3" stroke="rgb(255,0,0)" stroke-width="2" cx="699.2307692307693" cy="308.21453547797086" r="1.0"/>
               <circle fill="rgb(255,0,0)" fill-opacity="0.3" stroke="rgb(255,0,0)" stroke-width="2" cx="706.1538461538462" cy="293.36704502662866" r="1.0"/>
               <circle fill="rgb(255,0,0)" fill-opacity="0.3" stroke="rgb(255,0,0)" stroke-width="2" cx="713.0769230769231" cy="268.19086556565713" r="1.0"/>
               <circle fill="rgb(255,0,0)" fill-opacity="0.3" stroke="rgb(255,0,0)" stroke-width="2" cx="720.0" cy="247.53348754639848" r="1.0"/>
               <circle fill="rgb(255,0,0)" fill-opacity="0.3" stroke="rgb(255,0,0)" stroke-width="2" cx="726.9230769230769" cy="232.04045403195437" r="1.0"/>
               <circle fill="rgb(255,0,0)" fill-opacity="0.3" stroke="rgb(255,0,0)" stroke-width="2" cx="733.8461538461538" cy="212.67416213889936" r="1.0"/>
               <circle fill="rgb(255,0,0)" fill-opacity="0.3" stroke="rgb(255,0,0)" stroke-width="2" cx="740.7692307692307" cy="198.47221475065902" r="1.0"/>
               <circle fill="rgb(255,0,0)" fill-opacity="0.3" stroke="rgb(255,0,0)" stroke-width="2" cx="747.6923076923077" cy="183.62472429931682" r="1.0"/>
               <circle fill="rgb(255,0,0)" fill-opacity="0.3" stroke="rgb(255,0,0)" stroke-width="2" cx="754.6153846153846" cy="170.06831997417834" r="1.0"/>
               <circle fill="rgb(255,0,0)" fill-opacity="0.3" stroke="rgb(255,0,0)" stroke-width="2" cx="761.5384615384615" cy="158.44854483834524" r="1.0"/>
               <circle fill="rgb(255,0,0)" fill-opacity="0.3" stroke="rgb(255,0,0)" stroke-width="2" cx="768.4615384615385" cy="146.82876970251226" r="1.0"/>
               <circle fill="rgb(255,0,0)" fill-opacity="0.3" stroke="rgb(255,0,0)" stroke-width="2" cx="775.3846153846154" cy="135.20899456667922" r="1.0"/>
               <circle fill="rgb(255,0,0)" fill-opacity="0.3" stroke="rgb(255,0,0)" stroke-width="2" cx="782.3076923076924" cy="128.108020872559" r="1.0"/>
               <circle fill="rgb(255,0,0)" fill-opacity="0.3" stroke="rgb(255,0,0)" stroke-width="2" cx="789.2307692307692" cy="123.58921943084619" r="1.0"/>
               <circle fill="rgb(255,0,0)" fill-opacity="0.3" stroke="rgb(255,0,0)" stroke-width="2" cx="796.1538461538461" cy="118.42487492603146" r="1.0"/>
               <circle fill="rgb(255,0,0)" fill-opacity="0.3" stroke="rgb(255,0,0)" stroke-width="2" cx="803.076923076923" cy="112.614987358115" r="1.0"/>
               <circle fill="rgb(255,0,0)" fill-opacity="0.3" stroke="rgb(255,0,0)" stroke-width="2" cx="809.9999999999999" cy="106.15955672709663" r="1.0"/>
               <circle fill="rgb(255,0,0)" fill-opacity="0.3" stroke="rgb(255,0,0)" stroke-width="2" cx="816.923076923077" cy="104.86847060089298" r="1.0"/>
               <circle fill="rgb(255,0,0)" fill-opacity="0.3" stroke="rgb(255,0,0)" stroke-width="2" cx="823.8461538461539" cy="102.93184141158753" r="1.0"/>
               <circle fill="rgb(255,0,0)" fill-opacity="0.3" stroke="rgb(255,0,0)" stroke-width="2" cx="830.7692307692308" cy="100.9952122222819" r="1.0"/>
               <circle fill="rgb(255,0,0)" fill-opacity="0.3" stroke="rgb(255,0,0)" stroke-width="2" cx="837.6923076923077" cy="100.34966915918011" r="1.0"/>
               <circle fill="rgb(255,0,0)" fill-opacity="0.3" stroke="rgb(255,0,0)" stroke-width="2" cx="844.6153846153846" cy="99.05858303297651" r="1.0"/>
          </g>
          <g transform="translate(10,20)">
               <text pointer-events="none" y="3" dy=".71em" transform="translate(100,5)" fill="rgb(0,0,0)" text-anchor="middle">False negatives</text>
          </g>
          <g transform="translate(10,20)">
               <text pointer-events="none" x="3" dy=".35em" transform="translate(5,100)" fill="rgb(0,0,0)">Count of CDS strings with FN score</text>
          </g>
          <g transform="translate(10,20)">
               <text pointer-events="none" y="-3" transform="translate(450.0,600)" fill="rgb(0,0,0)" text-anchor="middle">score (rounded to .1)</text>
          </g>
          <g transform="translate(10,20)">
               <path d="M20.76923076923076,340.3109406379331L27.692307692307715,340.31101953648454L34.61538461538462,340.3111773335875L41.53846153846152,340.3118085219995L48.461538461538474,340.313465391581L55.38461538461537,340.317252522053L62.307692307692335,340.324511188791L69.23076923076924,340.3391863193699L76.15384615384613,340.36790539211574L83.0769230769231,340.4200573346569L89.99999999999999,340.5007705528409L96.92307692307695,340.6433402354005L103.84615384615385,340.8294619183879L110.76923076923075,341.0790180367809L117.6923076923077,341.4185974024348L124.6153846153846,341.8571944502207L131.53846153846158,342.4169796731097L138.46153846153848,343.1346408975494L145.3846153846154,344.0306128483779L152.30769230769232,345.1636749464626L159.23076923076923,346.51678510467934L166.15384615384613,348.23819370129587L173.0769230769231,350.16450183615666L180.0,352.89241925425256L186.92307692307693,355.48447336666635L193.84615384615384,358.38005020669874L200.76923076923075,361.7684273993972L207.6923076923077,365.38900302915863L214.6153846153846,369.2998464298869L221.53846153846155,373.63350716810106L228.46153846153845,378.28986298194826L235.3846153846154,383.4182688294171L242.3076923076923,388.88664853529735L249.23076923076925,396.0096886632256L256.15384615384613,401.9984043162452L263.07692307692304,408.3546294221495L270.0,414.6350330200629L276.92307692307696,421.0415165032725L283.8461538461538,427.4381376675446L290.7692307692308,433.99208254350674L297.6923076923077,440.5100496799852L304.61538461538464,447.1406839480049L311.53846153846155,453.67458859188616L318.46153846153845,460.25875161307266L325.38461538461536,466.87297498238047L332.30769230769226,473.2503449000867L339.2307692307693,479.65146328179435L346.1538461538462,485.9083551113608L353.0769230769231,492.0372734903951L360.0,498.1607478693759L366.9230769230769,504.17715691397177L373.84615384615387,510.12547650862365L380.7692307692308,515.984482942978L387.6923076923077,522.0004974948165L394.6153846153846,527.758119290494L401.5384615384615,534.4472962837264L408.4615384615385,539.5042200435366L415.3846153846154,544.1918985823291L422.3076923076923,548.6850921916753L429.2307692307692,552.9099518273716L436.15384615384613,556.8405987645262L443.0769230769231,560.5545902792632L450.0,564.0786729805408L456.9230769230769,567.2502369537185L463.8461538461539,570.303926490956L470.7692307692308,573.5113104065144L477.6923076923077,575.8698248064896L484.6153846153846,578.0884520746562L491.5384615384615,580.0254904125209L498.4615384615385,581.7744346036108L505.3846153846154,583.3451469668632L512.3076923076923,584.795696836182L519.2307692307692,586.1154329071144L526.1538461538461,587.3471181945733L533.0769230769231,588.4366282922302L540.0,589.4448728818427L546.923076923077,590.3847913258564L553.8461538461539,591.2471524937462L560.7692307692308,592.0530222987622L567.6923076923076,592.8008227698748L574.6153846153846,593.5034932695295L581.5384615384615,594.1415458555061L588.4615384615385,594.7389656874604L595.3846153846154,595.2875473160366L602.3076923076923,595.801886973262L609.2307692307693,596.2881387461535L616.1538461538462,596.7356513302589L623.0769230769231,597.1347991022949L630.0,597.5065690769607L636.9230769230769,597.8409411382156L643.8461538461538,598.1550362717352L650.7692307692307,598.4277096657175L657.6923076923076,598.6584879288537L664.6153846153845,598.8636241627524L671.5384615384614,599.0489568602247L678.4615384615386,599.2148805140283L685.3846153846155,599.3545309501824L692.3076923076924,599.4739833571527L699.2307692307693,599.5749735030721L706.1538461538462,599.6593949531766L713.0769230769231,599.7229082871337L720.0,599.7852381428183L726.9230769230769,599.832103882409L733.8461538461538,599.8704485784377L740.7692307692307,599.9008245207651L747.6923076923077,599.9248885789724L754.6153846153846,599.9425618545083L761.5384615384615,599.9586571590143L768.4615384615385,599.9706497388422L775.3846153846154,599.9793285795072L782.3076923076924,599.9844569853545L789.2307692307692,599.989269796996L796.1538461538461,599.9923468405045L803.076923076923,599.994477101395L809.9999999999999,599.9961339709765L816.923076923077,599.9973174492491L823.8461538461539,599.998264231867L830.7692307692308,599.998895420279L837.6923076923077,599.9994477101395L851.5384615384617,599.9999211014485" fill="none" stroke="rgb(255,0,0)" stroke-dasharray="" stroke-width="2"/>
          </g>
          <g transform="translate(10,20)">
               <circle fill="rgb(255,0,0)" fill-opacity="0.3" stroke="rgb(255,0,0)" stroke-width="2" cx="20.76923076923076" cy="340.3109406379331" r="1.0"/>
               <circle fill="rgb(255,0,0)" fill-opacity="0.3" stroke="rgb(255,0,0)" stroke-width="2" cx="27.692307692307715" cy="340.31101953648454" r="1.0"/>
               <circle fill="rgb(255,0,0)" fill-opacity="0.3" stroke="rgb(255,0,0)" stroke-width="2" cx="34.61538461538462" cy="340.3111773335875" r="1.0"/>
               <circle fill="rgb(255,0,0)" fill-opacity="0.3" stroke="rgb(255,0,0)" stroke-width="2" cx="41.53846153846152" cy="340.3118085219995" r="1.0"/>
               <circle fill="rgb(255,0,0)" fill-opacity="0.3" stroke="rgb(255,0,0)" stroke-width="2" cx="48.461538461538474" cy="340.313465391581" r="1.0"/>
               <circle fill="rgb(255,0,0)" fill-opacity="0.3" stroke="rgb(255,0,0)" stroke-width="2" cx="55.38461538461537" cy="340.317252522053" r="1.0"/>
               <circle fill="rgb(255,0,0)" fill-opacity="0.3" stroke="rgb(255,0,0)" stroke-width="2" cx="62.307692307692335" cy="340.324511188791" r="1.0"/>
               <circle fill="rgb(255,0,0)" fill-opacity="0.3" stroke="rgb(255,0,0)" stroke-width="2" cx="69.23076923076924" cy="340.3391863193699" r="1.0"/>
               <circle fill="rgb(255,0,0)" fill-opacity="0.3" stroke="rgb(255,0,0)" stroke-width="2" cx="76.15384615384613" cy="340.36790539211574" r="1.0"/>
               <circle fill="rgb(255,0,0)" fill-opacity="0.3" stroke="rgb(255,0,0)" stroke-width="2" cx="83.0769230769231" cy="340.4200573346569" r="1.0"/>
               <circle fill="rgb(255,0,0)" fill-opacity="0.3" stroke="rgb(255,0,0)" stroke-width="2" cx="89.99999999999999" cy="340.5007705528409" r="1.0"/>
               <circle fill="rgb(255,0,0)" fill-opacity="0.3" stroke="rgb(255,0,0)" stroke-width="2" cx="96.92307692307695" cy="340.6433402354005" r="1.0"/>
               <circle fill="rgb(255,0,0)" fill-opacity="0.3" stroke="rgb(255,0,0)" stroke-width="2" cx="103.84615384615385" cy="340.8294619183879" r="1.0"/>
               <circle fill="rgb(255,0,0)" fill-opacity="0.3" stroke="rgb(255,0,0)" stroke-width="2" cx="110.76923076923075" cy="341.0790180367809" r="1.0"/>
               <circle fill="rgb(255,0,0)" fill-opacity="0.3" stroke="rgb(255,0,0)" stroke-width="2" cx="117.6923076923077" cy="341.4185974024348" r="1.0"/>
               <circle fill="rgb(255,0,0)" fill-opacity="0.3" stroke="rgb(255,0,0)" stroke-width="2" cx="124.6153846153846" cy="341.8571944502207" r="1.0"/>
               <circle fill="rgb(255,0,0)" fill-opacity="0.3" stroke="rgb(255,0,0)" stroke-width="2" cx="131.53846153846158" cy="342.4169796731097" r="1.0"/>
               <circle fill="rgb(255,0,0)" fill-opacity="0.3" stroke="rgb(255,0,0)" stroke-width="2" cx="138.46153846153848" cy="343.1346408975494" r="1.0"/>
               <circle fill="rgb(255,0,0)" fill-opacity="0.3" stroke="rgb(255,0,0)" stroke-width="2" cx="145.3846153846154" cy="344.0306128483779" r="1.0"/>
               <circle fill="rgb(255,0,0)" fill-opacity="0.3" stroke="rgb(255,0,0)" stroke-width="2" cx="152.30769230769232" cy="345.1636749464626" r="1.0"/>
               <circle fill="rgb(255,0,0)" fill-opacity="0.3" stroke="rgb(255,0,0)" stroke-width="2" cx="159.23076923076923" cy="346.51678510467934" r="1.0"/>
               <circle fill="rgb(255,0,0)" fill-opacity="0.3" stroke="rgb(255,0,0)" stroke-width="2" cx="166.15384615384613" cy="348.23819370129587" r="1.0"/>
               <circle fill="rgb(255,0,0)" fill-opacity="0.3" stroke="rgb(255,0,0)" stroke-width="2" cx="173.0769230769231" cy="350.16450183615666" r="1.0"/>
               <circle fill="rgb(255,0,0)" fill-opacity="0.3" stroke="rgb(255,0,0)" stroke-width="2" cx="180.0" cy="352.89241925425256" r="1.0"/>
               <circle fill="rgb(255,0,0)" fill-opacity="0.3" stroke="rgb(255,0,0)" stroke-width="2" cx="186.92307692307693" cy="355.48447336666635" r="1.0"/>
               <circle fill="rgb(255,0,0)" fill-opacity="0.3" stroke="rgb(255,0,0)" stroke-width="2" cx="193.84615384615384" cy="358.38005020669874" r="1.0"/>
               <circle fill="rgb(255,0,0)" fill-opacity="0.3" stroke="rgb(255,0,0)" stroke-width="2" cx="200.76923076923075" cy="361.7684273993972" r="1.0"/>
               <circle fill="rgb(255,0,0)" fill-opacity="0.3" stroke="rgb(255,0,0)" stroke-width="2" cx="207.6923076923077" cy="365.38900302915863" r="1.0"/>
               <circle fill="rgb(255,0,0)" fill-opacity="0.3" stroke="rgb(255,0,0)" stroke-width="2" cx="214.6153846153846" cy="369.2998464298869" r="1.0"/>
               <circle fill="rgb(255,0,0)" fill-opacity="0.3" stroke="rgb(255,0,0)" stroke-width="2" cx="221.53846153846155" cy="373.63350716810106" r="1.0"/>
               <circle fill="rgb(255,0,0)" fill-opacity="0.3" stroke="rgb(255,0,0)" stroke-width="2" cx="228.46153846153845" cy="378.28986298194826" r="1.0"/>
               <circle fill="rgb(255,0,0)" fill-opacity="0.3" stroke="rgb(255,0,0)" stroke-width="2" cx="235.3846153846154" cy="383.4182688294171" r="1.0"/>
               <circle fill="rgb(255,0,0)" fill-opacity="0.3" stroke="rgb(255,0,0)" stroke-width="2" cx="242.3076923076923" cy="388.88664853529735" r="1.0"/>
               <circle fill="rgb(255,0,0)" fill-opacity="0.3" stroke="rgb(255,0,0)" stroke-width="2" cx="249.23076923076925" cy="396.0096886632256" r="1.0"/>
               <circle fill="rgb(255,0,0)" fill-opacity="0.3" stroke="rgb(255,0,0)" stroke-width="2" cx="256.15384615384613" cy="401.9984043162452" r="1.0"/>
               <circle fill="rgb(255,0,0)" fill-opacity="0.3" stroke="rgb(255,0,0)" stroke-width="2" cx="263.07692307692304" cy="408.3546294221495" r="1.0"/>
               <circle fill="rgb(255,0,0)" fill-opacity="0.3" stroke="rgb(255,0,0)" stroke-width="2" cx="270.0" cy="414.6350330200629" r="1.0"/>
               <circle fill="rgb(255,0,0)" fill-opacity="0.3" stroke="rgb(255,0,0)" stroke-width="2" cx="276.92307692307696" cy="421.0415165032725" r="1.0"/>
               <circle fill="rgb(255,0,0)" fill-opacity="0.3" stroke="rgb(255,0,0)" stroke-width="2" cx="283.8461538461538" cy="427.4381376675446" r="1.0"/>
               <circle fill="rgb(255,0,0)" fill-opacity="0.3" stroke="rgb(255,0,0)" stroke-width="2" cx="290.7692307692308" cy="433.99208254350674" r="1.0"/>
               <circle fill="rgb(255,0,0)" fill-opacity="0.3" stroke="rgb(255,0,0)" stroke-width="2" cx="297.6923076923077" cy="440.5100496799852" r="1.0"/>
               <circle fill="rgb(255,0,0)" fill-opacity="0.3" stroke="rgb(255,0,0)" stroke-width="2" cx="304.61538461538464" cy="447.1406839480049" r="1.0"/>
               <circle fill="rgb(255,0,0)" fill-opacity="0.3" stroke="rgb(255,0,0)" stroke-width="2" cx="311.53846153846155" cy="453.67458859188616" r="1.0"/>
               <circle fill="rgb(255,0,0)" fill-opacity="0.3" stroke="rgb(255,0,0)" stroke-width="2" cx="318.46153846153845" cy="460.25875161307266" r="1.0"/>
               <circle fill="rgb(255,0,0)" fill-opacity="0.3" stroke="rgb(255,0,0)" stroke-width="2" cx="325.38461538461536" cy="466.87297498238047" r="1.0"/>
               <circle fill="rgb(255,0,0)" fill-opacity="0.3" stroke="rgb(255,0,0)" stroke-width="2" cx="332.30769230769226" cy="473.2503449000867" r="1.0"/>
               <circle fill="rgb(255,0,0)" fill-opacity="0.3" stroke="rgb(255,0,0)" stroke-width="2" cx="339.2307692307693" cy="479.65146328179435" r="1.0"/>
               <circle fill="rgb(255,0,0)" fill-opacity="0.3" stroke="rgb(255,0,0)" stroke-width="2" cx="346.1538461538462" cy="485.9083551113608" r="1.0"/>
               <circle fill="rgb(255,0,0)" fill-opacity="0.3" stroke="rgb(255,0,0)" stroke-width="2" cx="353.0769230769231" cy="492.0372734903951" r="1.0"/>
               <circle fill="rgb(255,0,0)" fill-opacity="0.3" stroke="rgb(255,0,0)" stroke-width="2" cx="360.0" cy="498.1607478693759" r="1.0"/>
               <circle fill="rgb(255,0,0)" fill-opacity="0.3" stroke="rgb(255,0,0)" stroke-width="2" cx="366.9230769230769" cy="504.17715691397177" r="1.0"/>
               <circle fill="rgb(255,0,0)" fill-opacity="0.3" stroke="rgb(255,0,0)" stroke-width="2" cx="373.84615384615387" cy="510.12547650862365" r="1.0"/>
               <circle fill="rgb(255,0,0)" fill-opacity="0.3" stroke="rgb(255,0,0)" stroke-width="2" cx="380.7692307692308" cy="515.984482942978" r="1.0"/>
               <circle fill="rgb(255,0,0)" fill-opacity="0.3" stroke="rgb(255,0,0)" stroke-width="2" cx="387.6923076923077" cy="522.0004974948165" r="1.0"/>
               <circle fill="rgb(255,0,0)" fill-opacity="0.3" stroke="rgb(255,0,0)" stroke-width="2" cx="394.6153846153846" cy="527.758119290494" r="1.0"/>
               <circle fill="rgb(255,0,0)" fill-opacity="0.3" stroke="rgb(255,0,0)" stroke-width="2" cx="401.5384615384615" cy="534.4472962837264" r="1.0"/>
               <circle fill="rgb(255,0,0)" fill-opacity="0.3" stroke="rgb(255,0,0)" stroke-width="2" cx="408.4615384615385" cy="539.5042200435366" r="1.0"/>
               <circle fill="rgb(255,0,0)" fill-opacity="0.3" stroke="rgb(255,0,0)" stroke-width="2" cx="415.3846153846154" cy="544.1918985823291" r="1.0"/>
               <circle fill="rgb(255,0,0)" fill-opacity="0.3" stroke="rgb(255,0,0)" stroke-width="2" cx="422.3076923076923" cy="548.6850921916753" r="1.0"/>
               <circle fill="rgb(255,0,0)" fill-opacity="0.3" stroke="rgb(255,0,0)" stroke-width="2" cx="429.2307692307692" cy="552.9099518273716" r="1.0"/>
               <circle fill="rgb(255,0,0)" fill-opacity="0.3" stroke="rgb(255,0,0)" stroke-width="2" cx="436.15384615384613" cy="556.8405987645262" r="1.0"/>
               <circle fill="rgb(255,0,0)" fill-opacity="0.3" stroke="rgb(255,0,0)" stroke-width="2" cx="443.0769230769231" cy="560.5545902792632" r="1.0"/>
               <circle fill="rgb(255,0,0)" fill-opacity="0.3" stroke="rgb(255,0,0)" stroke-width="2" cx="450.0" cy="564.0786729805408" r="1.0"/>
               <circle fill="rgb(255,0,0)" fill-opacity="0.3" stroke="rgb(255,0,0)" stroke-width="2" cx="456.9230769230769" cy="567.2502369537185" r="1.0"/>
               <circle fill="rgb(255,0,0)" fill-opacity="0.3" stroke="rgb(255,0,0)" stroke-width="2" cx="463.8461538461539" cy="570.303926490956" r="1.0"/>
               <circle fill="rgb(255,0,0)" fill-opacity="0.3" stroke="rgb(255,0,0)" stroke-width="2" cx="470.7692307692308" cy="573.5113104065144" r="1.0"/>
               <circle fill="rgb(255,0,0)" fill-opacity="0.3" stroke="rgb(255,0,0)" stroke-width="2" cx="477.6923076923077" cy="575.8698248064896" r="1.0"/>
               <circle fill="rgb(255,0,0)" fill-opacity="0.3" stroke="rgb(255,0,0)" stroke-width="2" cx="484.6153846153846" cy="578.0884520746562" r="1.0"/>
               <circle fill="rgb(255,0,0)" fill-opacity="0.3" stroke="rgb(255,0,0)" stroke-width="2" cx="491.5384615384615" cy="580.0254904125209" r="1.0"/>
               <circle fill="rgb(255,0,0)" fill-opacity="0.3" stroke="rgb(255,0,0)" stroke-width="2" cx="498.4615384615385" cy="581.7744346036108" r="1.0"/>
               <circle fill="rgb(255,0,0)" fill-opacity="0.3" stroke="rgb(255,0,0)" stroke-width="2" cx="505.3846153846154" cy="583.3451469668632" r="1.0"/>
               <circle fill="rgb(255,0,0)" fill-opacity="0.3" stroke="rgb(255,0,0)" stroke-width="2" cx="512.3076923076923" cy="584.795696836182" r="1.0"/>
               <circle fill="rgb(255,0,0)" fill-opacity="0.3" stroke="rgb(255,0,0)" stroke-width="2" cx="519.2307692307692" cy="586.1154329071144" r="1.0"/>
               <circle fill="rgb(255,0,0)" fill-opacity="0.3" stroke="rgb(255,0,0)" stroke-width="2" cx="526.1538461538461" cy="587.3471181945733" r="1.0"/>
               <circle fill="rgb(255,0,0)" fill-opacity="0.3" stroke="rgb(255,0,0)" stroke-width="2" cx="533.0769230769231" cy="588.4366282922302" r="1.0"/>
               <circle fill="rgb(255,0,0)" fill-opacity="0.3" stroke="rgb(255,0,0)" stroke-width="2" cx="540.0" cy="589.4448728818427" r="1.0"/>
               <circle fill="rgb(255,0,0)" fill-opacity="0.3" stroke="rgb(255,0,0)" stroke-width="2" cx="546.923076923077" cy="590.3847913258564" r="1.0"/>
               <circle fill="rgb(255,0,0)" fill-opacity="0.3" stroke="rgb(255,0,0)" stroke-width="2" cx="553.8461538461539" cy="591.2471524937462" r="1.0"/>
               <circle fill="rgb(255,0,0)" fill-opacity="0.3" stroke="rgb(255,0,0)" stroke-width="2" cx="560.7692307692308" cy="592.0530222987622" r="1.0"/>
               <circle fill="rgb(255,0,0)" fill-opacity="0.3" stroke="rgb(255,0,0)" stroke-width="2" cx="567.6923076923076" cy="592.8008227698748" r="1.0"/>
               <circle fill="rgb(255,0,0)" fill-opacity="0.3" stroke="rgb(255,0,0)" stroke-width="2" cx="574.6153846153846" cy="593.5034932695295" r="1.0"/>
               <circle fill="rgb(255,0,0)" fill-opacity="0.3" stroke="rgb(255,0,0)" stroke-width="2" cx="581.5384615384615" cy="594.1415458555061" r="1.0"/>
               <circle fill="rgb(255,0,0)" fill-opacity="0.3" stroke="rgb(255,0,0)" stroke-width="2" cx="588.4615384615385" cy="594.7389656874604" r="1.0"/>
               <circle fill="rgb(255,0,0)" fill-opacity="0.3" stroke="rgb(255,0,0)" stroke-width="2" cx="595.3846153846154" cy="595.2875473160366" r="1.0"/>
               <circle fill="rgb(255,0,0)" fill-opacity="0.3" stroke="rgb(255,0,0)" stroke-width="2" cx="602.3076923076923" cy="595.801886973262" r="1.0"/>
               <circle fill="rgb(255,0,0)" fill-opacity="0.3" stroke="rgb(255,0,0)" stroke-width="2" cx="609.2307692307693" cy="596.2881387461535" r="1.0"/>
               <circle fill="rgb(255,0,0)" fill-opacity="0.3" stroke="rgb(255,0,0)" stroke-width="2" cx="616.1538461538462" cy="596.7356513302589" r="1.0"/>
               <circle fill="rgb(255,0,0)" fill-opacity="0.3" stroke="rgb(255,0,0)" stroke-width="2" cx="623.0769230769231" cy="597.1347991022949" r="1.0"/>
               <circle fill="rgb(255,0,0)" fill-opacity="0.3" stroke="rgb(255,0,0)" stroke-width="2" cx="630.0" cy="597.5065690769607" r="1.0"/>
               <circle fill="rgb(255,0,0)" fill-opacity="0.3" stroke="rgb(255,0,0)" stroke-width="2" cx="636.9230769230769" cy="597.8409411382156" r="1.0"/>
               <circle fill="rgb(255,0,0)" fill-opacity="0.3" stroke="rgb(255,0,0)" stroke-width="2" cx="643.8461538461538" cy="598.1550362717352" r="1.0"/>
               <circle fill="rgb(255,0,0)" fill-opacity="0.3" stroke="rgb(255,0,0)" stroke-width="2" cx="650.7692307692307" cy="598.4277096657175" r="1.0"/>
               <circle fill="rgb(255,0,0)" fill-opacity="0.3" stroke="rgb(255,0,0)" stroke-width="2" cx="657.6923076923076" cy="598.6584879288537" r="1.0"/>
               <circle fill="rgb(255,0,0)" fill-opacity="0.3" stroke="rgb(255,0,0)" stroke-width="2" cx="664.6153846153845" cy="598.8636241627524" r="1.0"/>
               <circle fill="rgb(255,0,0)" fill-opacity="0.3" stroke="rgb(255,0,0)" stroke-width="2" cx="671.5384615384614" cy="599.0489568602247" r="1.0"/>
               <circle fill="rgb(255,0,0)" fill-opacity="0.3" stroke="rgb(255,0,0)" stroke-width="2" cx="678.4615384615386" cy="599.2148805140283" r="1.0"/>
               <circle fill="rgb(255,0,0)" fill-opacity="0.3" stroke="rgb(255,0,0)" stroke-width="2" cx="685.3846153846155" cy="599.3545309501824" r="1.0"/>
               <circle fill="rgb(255,0,0)" fill-opacity="0.3" stroke="rgb(255,0,0)" stroke-width="2" cx="692.3076923076924" cy="599.4739833571527" r="1.0"/>
               <circle fill="rgb(255,0,0)" fill-opacity="0.3" stroke="rgb(255,0,0)" stroke-width="2" cx="699.2307692307693" cy="599.5749735030721" r="1.0"/>
               <circle fill="rgb(255,0,0)" fill-opacity="0.3" stroke="rgb(255,0,0)" stroke-width="2" cx="706.1538461538462" cy="599.6593949531766" r="1.0"/>
               <circle fill="rgb(255,0,0)" fill-opacity="0.3" stroke="rgb(255,0,0)" stroke-width="2" cx="713.0769230769231" cy="599.7229082871337" r="1.0"/>
               <circle fill="rgb(255,0,0)" fill-opacity="0.3" stroke="rgb(255,0,0)" stroke-width="2" cx="720.0" cy="599.7852381428183" r="1.0"/>
               <circle fill="rgb(255,0,0)" fill-opacity="0.3" stroke="rgb(255,0,0)" stroke-width="2" cx="726.9230769230769" cy="599.832103882409" r="1.0"/>
               <circle fill="rgb(255,0,0)" fill-opacity="0.3" stroke="rgb(255,0,0)" stroke-width="2" cx="733.8461538461538" cy="599.8704485784377" r="1.0"/>
               <circle fill="rgb(255,0,0)" fill-opacity="0.3" stroke="rgb(255,0,0)" stroke-width="2" cx="740.7692307692307" cy="599.9008245207651" r="1.0"/>
               <circle fill="rgb(255,0,0)" fill-opacity="0.3" stroke="rgb(255,0,0)" stroke-width="2" cx="747.6923076923077" cy="599.9248885789724" r="1.0"/>
               <circle fill="rgb(255,0,0)" fill-opacity="0.3" stroke="rgb(255,0,0)" stroke-width="2" cx="754.6153846153846" cy="599.9425618545083" r="1.0"/>
               <circle fill="rgb(255,0,0)" fill-opacity="0.3" stroke="rgb(255,0,0)" stroke-width="2" cx="761.5384615384615" cy="599.9586571590143" r="1.0"/>
               <circle fill="rgb(255,0,0)" fill-opacity="0.3" stroke="rgb(255,0,0)" stroke-width="2" cx="768.4615384615385" cy="599.9706497388422" r="1.0"/>
               <circle fill="rgb(255,0,0)" fill-opacity="0.3" stroke="rgb(255,0,0)" stroke-width="2" cx="775.3846153846154" cy="599.9793285795072" r="1.0"/>
               <circle fill="rgb(255,0,0)" fill-opacity="0.3" stroke="rgb(255,0,0)" stroke-width="2" cx="782.3076923076924" cy="599.9844569853545" r="1.0"/>
               <circle fill="rgb(255,0,0)" fill-opacity="0.3" stroke="rgb(255,0,0)" stroke-width="2" cx="789.2307692307692" cy="599.989269796996" r="1.0"/>
               <circle fill="rgb(255,0,0)" fill-opacity="0.3" stroke="rgb(255,0,0)" stroke-width="2" cx="796.1538461538461" cy="599.9923468405045" r="1.0"/>
               <circle fill="rgb(255,0,0)" fill-opacity="0.3" stroke="rgb(255,0,0)" stroke-width="2" cx="803.076923076923" cy="599.994477101395" r="1.0"/>
               <circle fill="rgb(255,0,0)" fill-opacity="0.3" stroke="rgb(255,0,0)" stroke-width="2" cx="809.9999999999999" cy="599.9961339709765" r="1.0"/>
               <circle fill="rgb(255,0,0)" fill-opacity="0.3" stroke="rgb(255,0,0)" stroke-width="2" cx="816.923076923077" cy="599.9973174492491" r="1.0"/>
               <circle fill="rgb(255,0,0)" fill-opacity="0.3" stroke="rgb(255,0,0)" stroke-width="2" cx="823.8461538461539" cy="599.998264231867" r="1.0"/>
               <circle fill="rgb(255,0,0)" fill-opacity="0.3" stroke="rgb(255,0,0)" stroke-width="2" cx="830.7692307692308" cy="599.998895420279" r="1.0"/>
               <circle fill="rgb(255,0,0)" fill-opacity="0.3" stroke="rgb(255,0,0)" stroke-width="2" cx="837.6923076923077" cy="599.9994477101395" r="1.0"/>
               <circle fill="rgb(255,0,0)" fill-opacity="0.3" stroke="rgb(255,0,0)" stroke-width="2" cx="851.5384615384617" cy="599.9999211014485" r="1.0"/>
          </g>
          <g transform="translate(10,20)">
               <text pointer-events="none" y="3" dy=".71em" transform="translate(100,15)" fill="rgb(0,0,0)" text-anchor="middle">False positives</text>
          </g>
          <g transform="translate(10,20)">
               <text pointer-events="none" x="3" dy=".35em" transform="translate(5,110)" fill="rgb(0,0,0)">Count of non-CDS strings with FP score</text>
          </g>
          <g transform="translate(10,20)">
               <text pointer-events="none" y="-3" transform="translate(450.0,600)" fill="rgb(0,0,0)" text-anchor="middle">score (rounded to .1)</text>
          </g>
          <g transform="translate(10,20)">
               <line shape-rendering="crispEdges" x1="0.0" y1="0" x2="0.0" y2="610" stroke="rgb(128,128,128)" stroke-opacity="0.2" stroke-width="1"/>
               <line shape-rendering="crispEdges" x1="69.23076923076924" y1="0" x2="69.23076923076924" y2="610" stroke="rgb(128,128,128)" stroke-opacity="0.2" stroke-width="1"/>
               <line shape-rendering="crispEdges" x1="138.46153846153848" y1="0" x2="138.46153846153848" y2="610" stroke="rgb(128,128,128)" stroke-opacity="0.2" stroke-width="1"/>
               <line shape-rendering="crispEdges" x1="207.6923076923077" y1="0" x2="207.6923076923077" y2="610" stroke="rgb(128,128,128)" stroke-opacity="0.2" stroke-width="1"/>
               <line shape-rendering="crispEdges" x1="276.92307692307696" y1="0" x2="276.92307692307696" y2="610" stroke="rgb(128,128,128)" stroke-opacity="0.2" stroke-width="1"/>
               <line shape-rendering="crispEdges" x1="346.1538461538462" y1="0" x2="346.1538461538462" y2="610" stroke="rgb(128,128,128)" stroke-opacity="0.2" stroke-width="1"/>
               <line shape-rendering="crispEdges" x1="415.3846153846154" y1="0" x2="415.3846153846154" y2="610" stroke="rgb(128,128,128)" stroke-opacity="0.2" stroke-width="1"/>
               <line shape-rendering="crispEdges" x1="484.6153846153846" y1="0" x2="484.6153846153846" y2="610" stroke="rgb(128,128,128)" stroke-opacity="0.2" stroke-width="1"/>
               <line shape-rendering="crispEdges" x1="553.8461538461539" y1="0" x2="553.8461538461539" y2="610" stroke="rgb(128,128,128)" stroke-opacity="0.2" stroke-width="1"/>
               <line shape-rendering="crispEdges" x1="623.0769230769231" y1="0" x2="623.0769230769231" y2="610" stroke="rgb(128,128,128)" stroke-opacity="0.2" stroke-width="1"/>
               <line shape-rendering="crispEdges" x1="692.3076923076924" y1="0" x2="692.3076923076924" y2="610" stroke="rgb(128,128,128)" stroke-opacity="0.2" stroke-width="1"/>
               <line shape-rendering="crispEdges" x1="761.5384615384615" y1="0" x2="761.5384615384615" y2="610" stroke="rgb(128,128,128)" stroke-opacity="0.2" stroke-width="1"/>
               <line shape-rendering="crispEdges" x1="830.7692307692308" y1="0" x2="830.7692307692308" y2="610" stroke="rgb(128,128,128)" stroke-opacity="0.2" stroke-width="1"/>
               <line shape-rendering="crispEdges" x1="900.0" y1="0" x2="900.0" y2="610" stroke="rgb(128,128,128)" stroke-opacity="0.2" stroke-width="1"/>
          </g>
          <g transform="translate(10,20)">
               <text pointer-events="none" y="3" dy=".71em" transform="translate(0.0,610)" fill="rgb(0,0,0)" text-anchor="middle">−6</text>
               <text pointer-events="none" y="3" dy=".71em" transform="translate(69.23076923076924,610)" fill="rgb(0,0,0)" text-anchor="middle">−5</text>
               <text pointer-events="none" y="3" dy=".71em" transform="translate(138.46153846153848,610)" fill="rgb(0,0,0)" text-anchor="middle">−4</text>
               <text pointer-events="none" y="3" dy=".71em" transform="translate(207.6923076923077,610)" fill="rgb(0,0,0)" text-anchor="middle">−3</text>
               <text pointer-events="none" y="3" dy=".71em" transform="translate(276.92307692307696,610)" fill="rgb(0,0,0)" text-anchor="middle">−2</text>
               <text pointer-events="none" y="3" dy=".71em" transform="translate(346.1538461538462,610)" fill="rgb(0,0,0)" text-anchor="middle">−1</text>
               <text pointer-events="none" y="3" dy=".71em" transform="translate(415.3846153846154,610)" fill="rgb(0,0,0)" text-anchor="middle">0</text>
               <text pointer-events="none" y="3" dy=".71em" transform="translate(484.6153846153846,610)" fill="rgb(0,0,0)" text-anchor="middle">1</text>
               <text pointer-events="none" y="3" dy=".71em" transform="translate(553.8461538461539,610)" fill="rgb(0,0,0)" text-anchor="middle">2</text>
               <text pointer-events="none" y="3" dy=".71em" transform="translate(623.0769230769231,610)" fill="rgb(0,0,0)" text-anchor="middle">3</text>
               <text pointer-events="none" y="3" dy=".71em" transform="translate(692.3076923076924,610)" fill="rgb(0,0,0)" text-anchor="middle">4</text>
               <text pointer-events="none" y="3" dy=".71em" transform="translate(761.5384615384615,610)" fill="rgb(0,0,0)" text-anchor="middle">5</text>
               <text pointer-events="none" y="3" dy=".71em" transform="translate(830.7692307692308,610)" fill="rgb(0,0,0)" text-anchor="middle">6</text>
               <text pointer-events="none" y="3" dy=".71em" transform="translate(900.0,610)" fill="rgb(0,0,0)" text-anchor="middle">7</text>
          </g>
          <g transform="translate(10,20)">
               <line shape-rendering="crispEdges" x1="0.0" y1="0" x2="0.0" y2="610" stroke="rgb(255,255,255)" stroke-opacity="0.3" stroke-width="1"/>
               <line shape-rendering="crispEdges" x1="69.23076923076924" y1="0" x2="69.23076923076924" y2="610" stroke="rgb(255,255,255)" stroke-opacity="0.3" stroke-width="1"/>
               <line shape-rendering="crispEdges" x1="138.46153846153848" y1="0" x2="138.46153846153848" y2="610" stroke="rgb(255,255,255)" stroke-opacity="0.3" stroke-width="1"/>
               <line shape-rendering="crispEdges" x1="207.6923076923077" y1="0" x2="207.6923076923077" y2="610" stroke="rgb(255,255,255)" stroke-opacity="0.3" stroke-width="1"/>
               <line shape-rendering="crispEdges" x1="276.92307692307696" y1="0" x2="276.92307692307696" y2="610" stroke="rgb(255,255,255)" stroke-opacity="0.3" stroke-width="1"/>
               <line shape-rendering="crispEdges" x1="346.1538461538462" y1="0" x2="346.1538461538462" y2="610" stroke="rgb(255,255,255)" stroke-opacity="0.3" stroke-width="1"/>
               <line shape-rendering="crispEdges" x1="415.3846153846154" y1="0" x2="415.3846153846154" y2="610" stroke="rgb(255,255,255)" stroke-opacity="0.3" stroke-width="1"/>
               <line shape-rendering="crispEdges" x1="484.6153846153846" y1="0" x2="484.6153846153846" y2="610" stroke="rgb(255,255,255)" stroke-opacity="0.3" stroke-width="1"/>
               <line shape-rendering="crispEdges" x1="553.8461538461539" y1="0" x2="553.8461538461539" y2="610" stroke="rgb(255,255,255)" stroke-opacity="0.3" stroke-width="1"/>
               <line shape-rendering="crispEdges" x1="623.0769230769231" y1="0" x2="623.0769230769231" y2="610" stroke="rgb(255,255,255)" stroke-opacity="0.3" stroke-width="1"/>
               <line shape-rendering="crispEdges" x1="692.3076923076924" y1="0" x2="692.3076923076924" y2="610" stroke="rgb(255,255,255)" stroke-opacity="0.3" stroke-width="1"/>
               <line shape-rendering="crispEdges" x1="761.5384615384615" y1="0" x2="761.5384615384615" y2="610" stroke="rgb(255,255,255)" stroke-opacity="0.3" stroke-width="1"/>
               <line shape-rendering="crispEdges" x1="830.7692307692308" y1="0" x2="830.7692307692308" y2="610" stroke="rgb(255,255,255)" stroke-opacity="0.3" stroke-width="1"/>
               <line shape-rendering="crispEdges" x1="900.0" y1="0" x2="900.0" y2="610" stroke="rgb(255,255,255)" stroke-opacity="0.3" stroke-width="1"/>
          </g>
          <g transform="translate(10,20)">
               <line shape-rendering="crispEdges" x1="0" y1="600.0" x2="900" y2="600.0" stroke="rgb(0,0,0)" stroke-width="1"/>
               <line shape-rendering="crispEdges" x1="0" y1="540.0" x2="900" y2="540.0" stroke="rgb(128,128,128)" stroke-opacity="0.2" stroke-width="1"/>
               <line shape-rendering="crispEdges" x1="0" y1="480.0" x2="900" y2="480.0" stroke="rgb(128,128,128)" stroke-opacity="0.2" stroke-width="1"/>
               <line shape-rendering="crispEdges" x1="0" y1="420.0" x2="900" y2="420.0" stroke="rgb(128,128,128)" stroke-opacity="0.2" stroke-width="1"/>
               <line shape-rendering="crispEdges" x1="0" y1="360.0" x2="900" y2="360.0" stroke="rgb(128,128,128)" stroke-opacity="0.2" stroke-width="1"/>
               <line shape-rendering="crispEdges" x1="0" y1="300.0" x2="900" y2="300.0" stroke="rgb(128,128,128)" stroke-opacity="0.2" stroke-width="1"/>
               <line shape-rendering="crispEdges" x1="0" y1="240.0" x2="900" y2="240.0" stroke="rgb(128,128,128)" stroke-opacity="0.2" stroke-width="1"/>
               <line shape-rendering="crispEdges" x1="0" y1="180.0" x2="900" y2="180.0" stroke="rgb(128,128,128)" stroke-opacity="0.2" stroke-width="1"/>
               <line shape-rendering="crispEdges" x1="0" y1="120.0" x2="900" y2="120.0" stroke="rgb(128,128,128)" stroke-opacity="0.2" stroke-width="1"/>
               <line shape-rendering="crispEdges" x1="0" y1="60.0" x2="900" y2="60.0" stroke="rgb(128,128,128)" stroke-opacity="0.2" stroke-width="1"/>
               <line shape-rendering="crispEdges" x1="0" y1="0.0" x2="900" y2="0.0" stroke="rgb(128,128,128)" stroke-opacity="0.2" stroke-width="1"/>
          </g>
          <g transform="translate(10,20)">
               <text pointer-events="none" x="-3" dy=".35em" transform="translate(0,600.0)" fill="rgb(0,0,0)" text-anchor="end">0.0</text>
               <text pointer-events="none" x="-3" dy=".35em" transform="translate(0,540.0)" fill="rgb(0,0,0)" text-anchor="end">0.5</text>
               <text pointer-events="none" x="-3" dy=".35em" transform="translate(0,480.0)" fill="rgb(0,0,0)" text-anchor="end">1.0</text>
               <text pointer-events="none" x="-3" dy=".35em" transform="translate(0,420.0)" fill="rgb(0,0,0)" text-anchor="end">1.5</text>
               <text pointer-events="none" x="-3" dy=".35em" transform="translate(0,360.0)" fill="rgb(0,0,0)" text-anchor="end">2.0</text>
               <text pointer-events="none" x="-3" dy=".35em" transform="translate(0,300.0)" fill="rgb(0,0,0)" text-anchor="end">2.5</text>
               <text pointer-events="none" x="-3" dy=".35em" transform="translate(0,240.0)" fill="rgb(0,0,0)" text-anchor="end">3.0</text>
               <text pointer-events="none" x="-3" dy=".35em" transform="translate(0,180.0)" fill="rgb(0,0,0)" text-anchor="end">3.5</text>
               <text pointer-events="none" x="-3" dy=".35em" transform="translate(0,120.0)" fill="rgb(0,0,0)" text-anchor="end">4.0</text>
               <text pointer-events="none" x="-3" dy=".35em" transform="translate(0,60.0)" fill="rgb(0,0,0)" text-anchor="end">4.5</text>
               <text pointer-events="none" x="-3" dy=".35em" transform="translate(0,0.0)" fill="rgb(0,0,0)" text-anchor="end">5.0</text>
          </g>
          <g transform="translate(10,20)">
               <line shape-rendering="crispEdges" x1="0" y1="0" x2="0" y2="600.0" stroke="rgb(0,0,0)" stroke-width="1"/>
               <line shape-rendering="crispEdges" x1="0" y1="0" x2="0" y2="540.0" stroke="rgb(255,255,255)" stroke-opacity="0.3" stroke-width="1"/>
               <line shape-rendering="crispEdges" x1="0" y1="0" x2="0" y2="480.0" stroke="rgb(255,255,255)" stroke-opacity="0.3" stroke-width="1"/>
               <line shape-rendering="crispEdges" x1="0" y1="0" x2="0" y2="420.0" stroke="rgb(255,255,255)" stroke-opacity="0.3" stroke-width="1"/>
               <line shape-rendering="crispEdges" x1="0" y1="0" x2="0" y2="360.0" stroke="rgb(255,255,255)" stroke-opacity="0.3" stroke-width="1"/>
               <line shape-rendering="crispEdges" x1="0" y1="0" x2="0" y2="300.0" stroke="rgb(255,255,255)" stroke-opacity="0.3" stroke-width="1"/>
               <line shape-rendering="crispEdges" x1="0" y1="0" x2="0" y2="240.0" stroke="rgb(255,255,255)" stroke-opacity="0.3" stroke-width="1"/>
               <line shape-rendering="crispEdges" x1="0" y1="0" x2="0" y2="180.0" stroke="rgb(255,255,255)" stroke-opacity="0.3" stroke-width="1"/>
               <line shape-rendering="crispEdges" x1="0" y1="0" x2="0" y2="120.0" stroke="rgb(255,255,255)" stroke-opacity="0.3" stroke-width="1"/>
               <line shape-rendering="crispEdges" x1="0" y1="0" x2="0" y2="60.0" stroke="rgb(255,255,255)" stroke-opacity="0.3" stroke-width="1"/>
               <line shape-rendering="crispEdges" x1="0" y1="0" x2="0" y2="0.0" stroke="rgb(255,255,255)" stroke-opacity="0.3" stroke-width="1"/>
          </g>
     </g>
</svg>
