<svg xmlns="http://www.w3.org/2000/svg" xmlns:xlink="http://www.w3.org/1999/xlink" font-size="10px" font-family="sans-serif" fill="none" stroke="none" stroke-width="1.5" width="1080" height="685">
     <g transform="translate(100,5)">
          <g transform="translate(10,20)">
               <rect x="56.999999999999986" y="599.8011572647193" width="6" height="0.19884273528066387" fill="rgb(0,128,0)" fill-opacity="0.5" stroke-width="0.0"/>
               <rect x="64.50000000000003" y="599.8011572647193" width="6" height="0.19884273528066387" fill="rgb(0,128,0)" fill-opacity="0.5" stroke-width="0.0"/>
               <rect x="72.0" y="599.403471794158" width="6" height="0.5965282058419916" fill="rgb(0,128,0)" fill-opacity="0.5" stroke-width="0.0"/>
               <rect x="79.49999999999997" y="599.8011572647193" width="6" height="0.19884273528066387" fill="rgb(0,128,0)" fill-opacity="0.5" stroke-width="0.0"/>
               <rect x="87.00000000000001" y="598.4092581177547" width="6" height="1.590741882245311" fill="rgb(0,128,0)" fill-opacity="0.5" stroke-width="0.0"/>
               <rect x="94.49999999999999" y="596.0231452943867" width="6" height="3.9768547056132775" fill="rgb(0,128,0)" fill-opacity="0.5" stroke-width="0.0"/>
               <rect x="102.00000000000003" y="593.0405042651767" width="6" height="6.959495734823349" fill="rgb(0,128,0)" fill-opacity="0.5" stroke-width="0.0"/>
               <rect x="109.5" y="594.2335606768606" width="6" height="5.766439323139366" fill="rgb(0,128,0)" fill-opacity="0.5" stroke-width="0.0"/>
               <rect x="116.99999999999997" y="588.2682786184407" width="6" height="11.731721381559282" fill="rgb(0,128,0)" fill-opacity="0.5" stroke-width="0.0"/>
               <rect x="124.50000000000003" y="584.490266648108" width="6" height="15.50973335189201" fill="rgb(0,128,0)" fill-opacity="0.5" stroke-width="0.0"/>
               <rect x="132.0" y="571.1678033843034" width="6" height="28.832196615696603" fill="rgb(0,128,0)" fill-opacity="0.5" stroke-width="0.0"/>
               <rect x="139.50000000000003" y="562.2198802966734" width="6" height="37.78011970332659" fill="rgb(0,128,0)" fill-opacity="0.5" stroke-width="0.0"/>
               <rect x="147.0" y="550.8858443856753" width="6" height="49.11415561432466" fill="rgb(0,128,0)" fill-opacity="0.5" stroke-width="0.0"/>
               <rect x="154.50000000000003" y="537.1656956513094" width="6" height="62.83430434869058" fill="rgb(0,128,0)" fill-opacity="0.5" stroke-width="0.0"/>
               <rect x="162.0" y="520.6617486230141" width="6" height="79.33825137698591" fill="rgb(0,128,0)" fill-opacity="0.5" stroke-width="0.0"/>
               <rect x="169.5" y="497.99367680101807" width="6" height="102.00632319898193" fill="rgb(0,128,0)" fill-opacity="0.5" stroke-width="0.0"/>
               <rect x="176.99999999999997" y="470.7522220675668" width="6" height="129.24777793243322" fill="rgb(0,128,0)" fill-opacity="0.5" stroke-width="0.0"/>
               <rect x="184.5" y="450.2714203336581" width="6" height="149.7285796663419" fill="rgb(0,128,0)" fill-opacity="0.5" stroke-width="0.0"/>
               <rect x="192.0" y="434.3640015112048" width="6" height="165.63599848879522" fill="rgb(0,128,0)" fill-opacity="0.5" stroke-width="0.0"/>
               <rect x="199.5" y="412.69014336561213" width="6" height="187.30985663438787" fill="rgb(0,128,0)" fill-opacity="0.5" stroke-width="0.0"/>
               <rect x="206.99999999999997" y="370.33664075083016" width="6" height="229.66335924916984" fill="rgb(0,128,0)" fill-opacity="0.5" stroke-width="0.0"/>
               <rect x="214.5" y="351.2477381638862" width="6" height="248.7522618361138" fill="rgb(0,128,0)" fill-opacity="0.5" stroke-width="0.0"/>
               <rect x="222.0" y="329.17619454773217" width="6" height="270.82380545226783" fill="rgb(0,128,0)" fill-opacity="0.5" stroke-width="0.0"/>
               <rect x="229.50000000000003" y="295.17408681473825" width="6" height="304.82591318526175" fill="rgb(0,128,0)" fill-opacity="0.5" stroke-width="0.0"/>
               <rect x="237.0" y="247.84951581793956" width="6" height="352.15048418206044" fill="rgb(0,128,0)" fill-opacity="0.5" stroke-width="0.0"/>
               <rect x="244.49999999999997" y="227.56755681931162" width="6" height="372.4324431806884" fill="rgb(0,128,0)" fill-opacity="0.5" stroke-width="0.0"/>
               <rect x="252.0" y="201.91684396810558" width="6" height="398.0831560318944" fill="rgb(0,128,0)" fill-opacity="0.5" stroke-width="0.0"/>
               <rect x="259.5" y="175.07307470521562" width="6" height="424.9269252947844" fill="rgb(0,128,0)" fill-opacity="0.5" stroke-width="0.0"/>
               <rect x="267.0" y="148.42814817760632" width="6" height="451.5718518223937" fill="rgb(0,128,0)" fill-opacity="0.5" stroke-width="0.0"/>
               <rect x="274.5" y="126.35660456145234" width="6" height="473.64339543854766" fill="rgb(0,128,0)" fill-opacity="0.5" stroke-width="0.0"/>
               <rect x="282.0" y="105.27927462170169" width="6" height="494.7207253782983" fill="rgb(0,128,0)" fill-opacity="0.5" stroke-width="0.0"/>
               <rect x="289.5" y="56.16511900737703" width="6" height="543.834880992623" fill="rgb(0,128,0)" fill-opacity="0.5" stroke-width="0.0"/>
               <rect x="297.0" y="59.94313097770976" width="6" height="540.0568690222902" fill="rgb(0,128,0)" fill-opacity="0.5" stroke-width="0.0"/>
               <rect x="304.49999999999994" y="18.78268477461188" width="6" height="581.2173152253881" fill="rgb(0,128,0)" fill-opacity="0.5" stroke-width="0.0"/>
               <rect x="312.00000000000006" y="51.59173609592176" width="6" height="548.4082639040782" fill="rgb(0,128,0)" fill-opacity="0.5" stroke-width="0.0"/>
               <rect x="319.5" y="27.53176512696109" width="6" height="572.4682348730389" fill="rgb(0,128,0)" fill-opacity="0.5" stroke-width="0.0"/>
               <rect x="327.0" y="15.203515539559703" width="6" height="584.7964844604403" fill="rgb(0,128,0)" fill-opacity="0.5" stroke-width="0.0"/>
               <rect x="334.5" y="2.875265952158429" width="6" height="597.1247340478416" fill="rgb(0,128,0)" fill-opacity="0.5" stroke-width="0.0"/>
               <rect x="342.0" y="6.85212065777182" width="6" height="593.1478793422282" fill="rgb(0,128,0)" fill-opacity="0.5" stroke-width="0.0"/>
               <rect x="349.5" y="38.07043009683639" width="6" height="561.9295699031636" fill="rgb(0,128,0)" fill-opacity="0.5" stroke-width="0.0"/>
               <rect x="356.99999999999994" y="18.583842039331103" width="6" height="581.4161579606689" fill="rgb(0,128,0)" fill-opacity="0.5" stroke-width="0.0"/>
               <rect x="364.50000000000006" y="13.413930922033728" width="6" height="586.5860690779663" fill="rgb(0,128,0)" fill-opacity="0.5" stroke-width="0.0"/>
               <rect x="372.0" y="42.44497027301111" width="6" height="557.5550297269889" fill="rgb(0,128,0)" fill-opacity="0.5" stroke-width="0.0"/>
               <rect x="379.5" y="64.91419935972635" width="6" height="535.0858006402736" fill="rgb(0,128,0)" fill-opacity="0.5" stroke-width="0.0"/>
               <rect x="387.0" y="81.61698912330235" width="6" height="518.3830108766977" fill="rgb(0,128,0)" fill-opacity="0.5" stroke-width="0.0"/>
               <rect x="394.5" y="94.939452387107" width="6" height="505.060547612893" fill="rgb(0,128,0)" fill-opacity="0.5" stroke-width="0.0"/>
               <rect x="402.0" y="120.39132250303237" width="6" height="479.60867749696763" fill="rgb(0,128,0)" fill-opacity="0.5" stroke-width="0.0"/>
               <rect x="409.5" y="130.33345926706568" width="6" height="469.6665407329343" fill="rgb(0,128,0)" fill-opacity="0.5" stroke-width="0.0"/>
               <rect x="416.99999999999994" y="131.72535841403032" width="6" height="468.2746415859697" fill="rgb(0,128,0)" fill-opacity="0.5" stroke-width="0.0"/>
               <rect x="424.50000000000006" y="180.04414308723233" width="6" height="419.9558569127677" fill="rgb(0,128,0)" fill-opacity="0.5" stroke-width="0.0"/>
               <rect x="432.0" y="211.66013799685828" width="6" height="388.3398620031417" fill="rgb(0,128,0)" fill-opacity="0.5" stroke-width="0.0"/>
               <rect x="439.5" y="222.9941739078563" width="6" height="377.0058260921437" fill="rgb(0,128,0)" fill-opacity="0.5" stroke-width="0.0"/>
               <rect x="447.0" y="261.56966455230554" width="6" height="338.43033544769446" fill="rgb(0,128,0)" fill-opacity="0.5" stroke-width="0.0"/>
               <rect x="454.5" y="282.4481517567756" width="6" height="317.5518482432244" fill="rgb(0,128,0)" fill-opacity="0.5" stroke-width="0.0"/>
               <rect x="462.00000000000006" y="304.7185381082102" width="6" height="295.2814618917898" fill="rgb(0,128,0)" fill-opacity="0.5" stroke-width="0.0"/>
               <rect x="469.5" y="329.7727227535742" width="6" height="270.2272772464258" fill="rgb(0,128,0)" fill-opacity="0.5" stroke-width="0.0"/>
               <rect x="477.0" y="349.85583901692155" width="6" height="250.14416098307845" fill="rgb(0,128,0)" fill-opacity="0.5" stroke-width="0.0"/>
               <rect x="484.49999999999994" y="358.2072338987095" width="6" height="241.7927661012905" fill="rgb(0,128,0)" fill-opacity="0.5" stroke-width="0.0"/>
               <rect x="491.99999999999994" y="385.2498458968802" width="6" height="214.75015410311983" fill="rgb(0,128,0)" fill-opacity="0.5" stroke-width="0.0"/>
               <rect x="499.5" y="402.9468493368595" width="6" height="197.0531506631405" fill="rgb(0,128,0)" fill-opacity="0.5" stroke-width="0.0"/>
               <rect x="507.0" y="429.19409039390746" width="6" height="170.80590960609254" fill="rgb(0,128,0)" fill-opacity="0.5" stroke-width="0.0"/>
               <rect x="514.5000000000001" y="429.79061859974945" width="6" height="170.20938140025055" fill="rgb(0,128,0)" fill-opacity="0.5" stroke-width="0.0"/>
               <rect x="522.0" y="446.6922510986061" width="6" height="153.3077489013939" fill="rgb(0,128,0)" fill-opacity="0.5" stroke-width="0.0"/>
               <rect x="529.5" y="462.00314171521745" width="6" height="137.99685828478255" fill="rgb(0,128,0)" fill-opacity="0.5" stroke-width="0.0"/>
               <rect x="537.0" y="477.5128750671094" width="6" height="122.4871249328906" fill="rgb(0,128,0)" fill-opacity="0.5" stroke-width="0.0"/>
               <rect x="544.5" y="489.0457537133881" width="6" height="110.95424628661192" fill="rgb(0,128,0)" fill-opacity="0.5" stroke-width="0.0"/>
               <rect x="552.0" y="497.3971485951761" width="6" height="102.60285140482392" fill="rgb(0,128,0)" fill-opacity="0.5" stroke-width="0.0"/>
               <rect x="559.5" y="515.292994770436" width="6" height="84.70700522956395" fill="rgb(0,128,0)" fill-opacity="0.5" stroke-width="0.0"/>
               <rect x="567.0" y="519.4686922113301" width="6" height="80.53130778866989" fill="rgb(0,128,0)" fill-opacity="0.5" stroke-width="0.0"/>
               <rect x="574.5" y="523.0478614463821" width="6" height="76.95213855361794" fill="rgb(0,128,0)" fill-opacity="0.5" stroke-width="0.0"/>
               <rect x="582.0" y="539.5518084746774" width="6" height="60.44819152532261" fill="rgb(0,128,0)" fill-opacity="0.5" stroke-width="0.0"/>
               <rect x="589.5" y="542.733292239168" width="6" height="57.26670776083199" fill="rgb(0,128,0)" fill-opacity="0.5" stroke-width="0.0"/>
               <rect x="597.0" y="547.1078324153427" width="6" height="52.89216758465727" fill="rgb(0,128,0)" fill-opacity="0.5" stroke-width="0.0"/>
               <rect x="604.4999999999999" y="546.5113042095007" width="6" height="53.488695790499264" fill="rgb(0,128,0)" fill-opacity="0.5" stroke-width="0.0"/>
               <rect x="611.9999999999999" y="552.27774353264" width="6" height="47.72225646736001" fill="rgb(0,128,0)" fill-opacity="0.5" stroke-width="0.0"/>
               <rect x="619.5000000000001" y="553.8684854148854" width="6" height="46.13151458511459" fill="rgb(0,128,0)" fill-opacity="0.5" stroke-width="0.0"/>
               <rect x="627.0000000000001" y="567.5886341492513" width="6" height="32.411365850748666" fill="rgb(0,128,0)" fill-opacity="0.5" stroke-width="0.0"/>
               <rect x="634.5" y="573.9516016782327" width="6" height="26.04839832176731" fill="rgb(0,128,0)" fill-opacity="0.5" stroke-width="0.0"/>
               <rect x="642.0" y="571.1678033843034" width="6" height="28.832196615696603" fill="rgb(0,128,0)" fill-opacity="0.5" stroke-width="0.0"/>
               <rect x="649.5" y="577.7296136485653" width="6" height="22.270386351434695" fill="rgb(0,128,0)" fill-opacity="0.5" stroke-width="0.0"/>
               <rect x="657.0" y="577.7296136485653" width="6" height="22.270386351434695" fill="rgb(0,128,0)" fill-opacity="0.5" stroke-width="0.0"/>
               <rect x="664.5" y="575.542343560478" width="6" height="24.457656439521998" fill="rgb(0,128,0)" fill-opacity="0.5" stroke-width="0.0"/>
               <rect x="672.0" y="580.7122546777754" width="6" height="19.287745322224623" fill="rgb(0,128,0)" fill-opacity="0.5" stroke-width="0.0"/>
               <rect x="679.5" y="582.5018392953014" width="6" height="17.49816070469865" fill="rgb(0,128,0)" fill-opacity="0.5" stroke-width="0.0"/>
               <rect x="687.0" y="586.4786940009146" width="6" height="13.52130599908537" fill="rgb(0,128,0)" fill-opacity="0.5" stroke-width="0.0"/>
               <rect x="694.5" y="587.8705931478794" width="6" height="12.12940685212061" fill="rgb(0,128,0)" fill-opacity="0.5" stroke-width="0.0"/>
               <rect x="702.0" y="590.455548706528" width="6" height="9.54445129347198" fill="rgb(0,128,0)" fill-opacity="0.5" stroke-width="0.0"/>
               <rect x="709.5" y="591.4497623829313" width="6" height="8.55023761706866" fill="rgb(0,128,0)" fill-opacity="0.5" stroke-width="0.0"/>
               <rect x="716.9999999999999" y="591.05207691237" width="6" height="8.947923087629988" fill="rgb(0,128,0)" fill-opacity="0.5" stroke-width="0.0"/>
               <rect x="724.4999999999999" y="592.841661529896" width="6" height="7.158338470104013" fill="rgb(0,128,0)" fill-opacity="0.5" stroke-width="0.0"/>
               <rect x="732.0000000000001" y="594.8300888827026" width="6" height="5.169911117297374" fill="rgb(0,128,0)" fill-opacity="0.5" stroke-width="0.0"/>
               <rect x="739.5000000000001" y="594.4324034121413" width="6" height="5.567596587858702" fill="rgb(0,128,0)" fill-opacity="0.5" stroke-width="0.0"/>
               <rect x="747.0" y="597.4150444413514" width="6" height="2.5849555586486304" fill="rgb(0,128,0)" fill-opacity="0.5" stroke-width="0.0"/>
               <rect x="754.5" y="597.4150444413514" width="6" height="2.5849555586486304" fill="rgb(0,128,0)" fill-opacity="0.5" stroke-width="0.0"/>
               <rect x="762.0" y="597.8127299119127" width="6" height="2.1872700880873026" fill="rgb(0,128,0)" fill-opacity="0.5" stroke-width="0.0"/>
               <rect x="769.5" y="598.4092581177547" width="6" height="1.590741882245311" fill="rgb(0,128,0)" fill-opacity="0.5" stroke-width="0.0"/>
               <rect x="777.0" y="599.2046290588773" width="6" height="0.7953709411226555" fill="rgb(0,128,0)" fill-opacity="0.5" stroke-width="0.0"/>
               <rect x="784.5" y="599.2046290588773" width="6" height="0.7953709411226555" fill="rgb(0,128,0)" fill-opacity="0.5" stroke-width="0.0"/>
               <rect x="792.0" y="599.8011572647193" width="6" height="0.19884273528066387" fill="rgb(0,128,0)" fill-opacity="0.5" stroke-width="0.0"/>
               <rect x="799.5" y="599.6023145294387" width="6" height="0.39768547056132775" fill="rgb(0,128,0)" fill-opacity="0.5" stroke-width="0.0"/>
               <rect x="807.0" y="599.8011572647193" width="6" height="0.19884273528066387" fill="rgb(0,128,0)" fill-opacity="0.5" stroke-width="0.0"/>
               <rect x="814.5" y="599.8011572647193" width="6" height="0.19884273528066387" fill="rgb(0,128,0)" fill-opacity="0.5" stroke-width="0.0"/>
               <rect x="829.4999999999999" y="599.403471794158" width="6" height="0.5965282058419916" fill="rgb(0,128,0)" fill-opacity="0.5" stroke-width="0.0"/>
               <rect x="844.5000000000001" y="599.8011572647193" width="6" height="0.19884273528066387" fill="rgb(0,128,0)" fill-opacity="0.5" stroke-width="0.0"/>
               <rect x="882.0" y="599.8011572647193" width="6" height="0.19884273528066387" fill="rgb(0,128,0)" fill-opacity="0.5" stroke-width="0.0"/>
          </g>
          <g transform="translate(10,20)">
               <text pointer-events="none" y="3" dy=".71em" transform="translate(100,5)" fill="rgb(0,0,0)" text-anchor="middle">scores with given probabilities distribution</text>
          </g>
          <g transform="translate(10,20)">
               <text pointer-events="none" x="3" dy=".35em" transform="translate(5,100)" fill="rgb(0,0,0)">Percentage of strings</text>
          </g>
          <g transform="translate(10,20)">
               <text pointer-events="none" y="-3" transform="translate(450.0,600)" fill="rgb(0,0,0)" text-anchor="middle">score (rounded)</text>
          </g>
          <g transform="translate(10,20)">
               <line shape-rendering="crispEdges" x1="0.0" y1="0" x2="0.0" y2="610" stroke="rgb(128,128,128)" stroke-opacity="0.2" stroke-width="1"/>
               <line shape-rendering="crispEdges" x1="75.0" y1="0" x2="75.0" y2="610" stroke="rgb(128,128,128)" stroke-opacity="0.2" stroke-width="1"/>
               <line shape-rendering="crispEdges" x1="150.0" y1="0" x2="150.0" y2="610" stroke="rgb(128,128,128)" stroke-opacity="0.2" stroke-width="1"/>
               <line shape-rendering="crispEdges" x1="225.0" y1="0" x2="225.0" y2="610" stroke="rgb(128,128,128)" stroke-opacity="0.2" stroke-width="1"/>
               <line shape-rendering="crispEdges" x1="300.0" y1="0" x2="300.0" y2="610" stroke="rgb(128,128,128)" stroke-opacity="0.2" stroke-width="1"/>
               <line shape-rendering="crispEdges" x1="375.0" y1="0" x2="375.0" y2="610" stroke="rgb(128,128,128)" stroke-opacity="0.2" stroke-width="1"/>
               <line shape-rendering="crispEdges" x1="450.0" y1="0" x2="450.0" y2="610" stroke="rgb(128,128,128)" stroke-opacity="0.2" stroke-width="1"/>
               <line shape-rendering="crispEdges" x1="525.0" y1="0" x2="525.0" y2="610" stroke="rgb(128,128,128)" stroke-opacity="0.2" stroke-width="1"/>
               <line shape-rendering="crispEdges" x1="600.0" y1="0" x2="600.0" y2="610" stroke="rgb(128,128,128)" stroke-opacity="0.2" stroke-width="1"/>
               <line shape-rendering="crispEdges" x1="675.0" y1="0" x2="675.0" y2="610" stroke="rgb(128,128,128)" stroke-opacity="0.2" stroke-width="1"/>
               <line shape-rendering="crispEdges" x1="750.0" y1="0" x2="750.0" y2="610" stroke="rgb(128,128,128)" stroke-opacity="0.2" stroke-width="1"/>
               <line shape-rendering="crispEdges" x1="825.0" y1="0" x2="825.0" y2="610" stroke="rgb(128,128,128)" stroke-opacity="0.2" stroke-width="1"/>
               <line shape-rendering="crispEdges" x1="900.0" y1="0" x2="900.0" y2="610" stroke="rgb(128,128,128)" stroke-opacity="0.2" stroke-width="1"/>
          </g>
          <g transform="translate(10,20)">
               <text pointer-events="none" y="3" dy=".71em" transform="translate(0.0,610)" fill="rgb(0,0,0)" text-anchor="middle">−6</text>
               <text pointer-events="none" y="3" dy=".71em" transform="translate(75.0,610)" fill="rgb(0,0,0)" text-anchor="middle">−5</text>
               <text pointer-events="none" y="3" dy=".71em" transform="translate(150.0,610)" fill="rgb(0,0,0)" text-anchor="middle">−4</text>
               <text pointer-events="none" y="3" dy=".71em" transform="translate(225.0,610)" fill="rgb(0,0,0)" text-anchor="middle">−3</text>
               <text pointer-events="none" y="3" dy=".71em" transform="translate(300.0,610)" fill="rgb(0,0,0)" text-anchor="middle">−2</text>
               <text pointer-events="none" y="3" dy=".71em" transform="translate(375.0,610)" fill="rgb(0,0,0)" text-anchor="middle">−1</text>
               <text pointer-events="none" y="3" dy=".71em" transform="translate(450.0,610)" fill="rgb(0,0,0)" text-anchor="middle">0</text>
               <text pointer-events="none" y="3" dy=".71em" transform="translate(525.0,610)" fill="rgb(0,0,0)" text-anchor="middle">1</text>
               <text pointer-events="none" y="3" dy=".71em" transform="translate(600.0,610)" fill="rgb(0,0,0)" text-anchor="middle">2</text>
               <text pointer-events="none" y="3" dy=".71em" transform="translate(675.0,610)" fill="rgb(0,0,0)" text-anchor="middle">3</text>
               <text pointer-events="none" y="3" dy=".71em" transform="translate(750.0,610)" fill="rgb(0,0,0)" text-anchor="middle">4</text>
               <text pointer-events="none" y="3" dy=".71em" transform="translate(825.0,610)" fill="rgb(0,0,0)" text-anchor="middle">5</text>
               <text pointer-events="none" y="3" dy=".71em" transform="translate(900.0,610)" fill="rgb(0,0,0)" text-anchor="middle">6</text>
          </g>
          <g transform="translate(10,20)">
               <line shape-rendering="crispEdges" x1="0.0" y1="0" x2="0.0" y2="610" stroke="rgb(255,255,255)" stroke-opacity="0.3" stroke-width="1"/>
               <line shape-rendering="crispEdges" x1="75.0" y1="0" x2="75.0" y2="610" stroke="rgb(255,255,255)" stroke-opacity="0.3" stroke-width="1"/>
               <line shape-rendering="crispEdges" x1="150.0" y1="0" x2="150.0" y2="610" stroke="rgb(255,255,255)" stroke-opacity="0.3" stroke-width="1"/>
               <line shape-rendering="crispEdges" x1="225.0" y1="0" x2="225.0" y2="610" stroke="rgb(255,255,255)" stroke-opacity="0.3" stroke-width="1"/>
               <line shape-rendering="crispEdges" x1="300.0" y1="0" x2="300.0" y2="610" stroke="rgb(255,255,255)" stroke-opacity="0.3" stroke-width="1"/>
               <line shape-rendering="crispEdges" x1="375.0" y1="0" x2="375.0" y2="610" stroke="rgb(255,255,255)" stroke-opacity="0.3" stroke-width="1"/>
               <line shape-rendering="crispEdges" x1="450.0" y1="0" x2="450.0" y2="610" stroke="rgb(255,255,255)" stroke-opacity="0.3" stroke-width="1"/>
               <line shape-rendering="crispEdges" x1="525.0" y1="0" x2="525.0" y2="610" stroke="rgb(255,255,255)" stroke-opacity="0.3" stroke-width="1"/>
               <line shape-rendering="crispEdges" x1="600.0" y1="0" x2="600.0" y2="610" stroke="rgb(255,255,255)" stroke-opacity="0.3" stroke-width="1"/>
               <line shape-rendering="crispEdges" x1="675.0" y1="0" x2="675.0" y2="610" stroke="rgb(255,255,255)" stroke-opacity="0.3" stroke-width="1"/>
               <line shape-rendering="crispEdges" x1="750.0" y1="0" x2="750.0" y2="610" stroke="rgb(255,255,255)" stroke-opacity="0.3" stroke-width="1"/>
               <line shape-rendering="crispEdges" x1="825.0" y1="0" x2="825.0" y2="610" stroke="rgb(255,255,255)" stroke-opacity="0.3" stroke-width="1"/>
               <line shape-rendering="crispEdges" x1="900.0" y1="0" x2="900.0" y2="610" stroke="rgb(255,255,255)" stroke-opacity="0.3" stroke-width="1"/>
          </g>
          <g transform="translate(10,20)">
               <line shape-rendering="crispEdges" x1="0" y1="600.0" x2="900" y2="600.0" stroke="rgb(0,0,0)" stroke-width="1"/>
               <line shape-rendering="crispEdges" x1="0" y1="500.0" x2="900" y2="500.0" stroke="rgb(128,128,128)" stroke-opacity="0.2" stroke-width="1"/>
               <line shape-rendering="crispEdges" x1="0" y1="400.0" x2="900" y2="400.0" stroke="rgb(128,128,128)" stroke-opacity="0.2" stroke-width="1"/>
               <line shape-rendering="crispEdges" x1="0" y1="300.0" x2="900" y2="300.0" stroke="rgb(128,128,128)" stroke-opacity="0.2" stroke-width="1"/>
               <line shape-rendering="crispEdges" x1="0" y1="200.0" x2="900" y2="200.0" stroke="rgb(128,128,128)" stroke-opacity="0.2" stroke-width="1"/>
               <line shape-rendering="crispEdges" x1="0" y1="100.0" x2="900" y2="100.0" stroke="rgb(128,128,128)" stroke-opacity="0.2" stroke-width="1"/>
               <line shape-rendering="crispEdges" x1="0" y1="0.0" x2="900" y2="0.0" stroke="rgb(128,128,128)" stroke-opacity="0.2" stroke-width="1"/>
          </g>
          <g transform="translate(10,20)">
               <text pointer-events="none" x="-3" dy=".35em" transform="translate(0,600.0)" fill="rgb(0,0,0)" text-anchor="end">0.0</text>
               <text pointer-events="none" x="-3" dy=".35em" transform="translate(0,500.0)" fill="rgb(0,0,0)" text-anchor="end">0.5</text>
               <text pointer-events="none" x="-3" dy=".35em" transform="translate(0,400.0)" fill="rgb(0,0,0)" text-anchor="end">1.0</text>
               <text pointer-events="none" x="-3" dy=".35em" transform="translate(0,300.0)" fill="rgb(0,0,0)" text-anchor="end">1.5</text>
               <text pointer-events="none" x="-3" dy=".35em" transform="translate(0,200.0)" fill="rgb(0,0,0)" text-anchor="end">2.0</text>
               <text pointer-events="none" x="-3" dy=".35em" transform="translate(0,100.0)" fill="rgb(0,0,0)" text-anchor="end">2.5</text>
               <text pointer-events="none" x="-3" dy=".35em" transform="translate(0,0.0)" fill="rgb(0,0,0)" text-anchor="end">3.0</text>
          </g>
          <g transform="translate(10,20)">
               <line shape-rendering="crispEdges" x1="0" y1="0" x2="0" y2="600.0" stroke="rgb(0,0,0)" stroke-width="1"/>
               <line shape-rendering="crispEdges" x1="0" y1="0" x2="0" y2="500.0" stroke="rgb(255,255,255)" stroke-opacity="0.3" stroke-width="1"/>
               <line shape-rendering="crispEdges" x1="0" y1="0" x2="0" y2="400.0" stroke="rgb(255,255,255)" stroke-opacity="0.3" stroke-width="1"/>
               <line shape-rendering="crispEdges" x1="0" y1="0" x2="0" y2="300.0" stroke="rgb(255,255,255)" stroke-opacity="0.3" stroke-width="1"/>
               <line shape-rendering="crispEdges" x1="0" y1="0" x2="0" y2="200.0" stroke="rgb(255,255,255)" stroke-opacity="0.3" stroke-width="1"/>
               <line shape-rendering="crispEdges" x1="0" y1="0" x2="0" y2="100.0" stroke="rgb(255,255,255)" stroke-opacity="0.3" stroke-width="1"/>
               <line shape-rendering="crispEdges" x1="0" y1="0" x2="0" y2="0.0" stroke="rgb(255,255,255)" stroke-opacity="0.3" stroke-width="1"/>
          </g>
     </g>
</svg>
